<svg width="235" height="32" viewBox="0 0 235 32" fill="none" xmlns="http://www.w3.org/2000/svg">
<path d="M41.6602 15.0449C42.9492 13.0658 44.1276 10.4876 45.1953 7.31055L46.6211 7.74023C46.25 8.77539 45.8789 9.73893 45.5078 10.6309H53.9844C53.724 15.8783 53.5091 19.8952 53.3398 22.6816C53.1966 24.8561 52.1549 25.9434 50.2148 25.9434C49.4857 25.9434 48.6263 25.9238 47.6367 25.8848C47.5716 25.403 47.4805 24.8496 47.3633 24.2246C48.4961 24.3548 49.3945 24.4199 50.0586 24.4199C51.1133 24.4199 51.6927 23.821 51.7969 22.623C52.0312 19.8757 52.2396 16.3405 52.4219 12.0176H50.9277C50.5892 15.3379 50.0391 17.9551 49.2773 19.8691C48.2357 22.3431 46.4648 24.4655 43.9648 26.2363C43.6784 25.8327 43.3464 25.4355 42.9688 25.0449C45.4036 23.3262 47.0898 21.3535 48.0273 19.127C48.7826 17.2975 49.2676 14.9277 49.4824 12.0176H47.7441C47.3926 14.5046 46.8685 16.5033 46.1719 18.0137C45.3125 19.7194 44.1341 21.2493 42.6367 22.6035C42.3112 22.1868 41.9727 21.8027 41.6211 21.4512C43.1055 20.1621 44.2057 18.8079 44.9219 17.3887C45.6185 15.9434 46.0807 14.153 46.3086 12.0176H44.9023C44.2383 13.4954 43.5742 14.752 42.9102 15.7871C42.5846 15.5658 42.168 15.3184 41.6602 15.0449ZM35.293 19.0488C36.4909 18.6517 37.7344 18.2285 39.0234 17.7793V13.1699H37.2559C36.9954 14.4069 36.6797 15.5397 36.3086 16.5684C35.8919 16.2689 35.4688 15.9824 35.0391 15.709C35.7682 13.9251 36.2305 11.7832 36.4258 9.2832L37.832 9.51758C37.7409 10.3314 37.6302 11.1126 37.5 11.8613H39.0234V7.4668H40.4883V11.8613H42.4219V13.1699H40.4883V17.2617C41.1263 17.0273 41.7773 16.7897 42.4414 16.5488C42.5065 17.1217 42.5781 17.6165 42.6562 18.0332C42.0117 18.2676 41.2891 18.5345 40.4883 18.834V26.6074H39.0234V19.3906C37.9818 19.7812 36.8359 20.2207 35.5859 20.709L35.293 19.0488ZM62.5195 12.6816H65.8398V9.92773H62.0508V8.59961H74.4922V9.92773H70.4492V12.6816H73.8672V26.3926H72.4609V25.3379H63.9258V26.3926H62.5195V12.6816ZM71.1133 20.3184C69.7591 20.2793 69.082 19.5697 69.082 18.1895V14.0098H67.207C67.2201 17.3301 66.3932 19.8887 64.7266 21.6855C64.4792 21.3991 64.2122 21.1126 63.9258 20.8262V24.0098H72.4609V20.3574C71.9531 20.3574 71.5039 20.3444 71.1133 20.3184ZM55.1953 19.791C56.6016 17.3822 57.5716 15.0514 58.1055 12.7988H55.5664V11.4512H58.1055V7.44727H59.5312V11.4512H61.875V12.7988H59.5312V14.8691L60.2344 14.3418C61.1458 15.4486 61.7773 16.2754 62.1289 16.8223L61.0742 17.6035C60.6576 16.9785 60.1432 16.2428 59.5312 15.3965V26.3926H58.1055V16.4121C57.4544 18.4694 56.6927 20.1686 55.8203 21.5098C55.651 20.9499 55.4427 20.377 55.1953 19.791ZM71.5039 18.9512H72.4609V14.0098H70.4492V17.9355C70.4492 18.6126 70.8008 18.9512 71.5039 18.9512ZM63.9258 20.2988C65.2148 18.8535 65.8529 16.7572 65.8398 14.0098H63.9258V20.2988ZM67.207 12.6816H69.082V9.92773H67.207V12.6816ZM79.7266 11.8809L81.3281 12.4473C80.0781 16.015 78.6198 19.3678 76.9531 22.5059C76.5104 22.2324 75.9766 21.9395 75.3516 21.627C76.849 19.1009 78.3073 15.8522 79.7266 11.8809ZM88.4375 12.623L89.9023 11.9199C91.556 14.9277 93.1706 18.0918 94.7461 21.4121L92.9688 22.252C91.3802 18.5671 89.8698 15.3574 88.4375 12.623ZM84.375 7.60352H86.1133V23.7949C86.1133 25.4876 85.1953 26.334 83.3594 26.334C82.6302 26.334 81.6602 26.3145 80.4492 26.2754C80.3581 25.7025 80.2474 25.0905 80.1172 24.4395C81.3672 24.5566 82.3242 24.6152 82.9883 24.6152C83.9128 24.6152 84.375 24.1986 84.375 23.3652V7.60352ZM104.277 7.95508L105.703 7.19336C106.263 7.90951 106.797 8.68424 107.305 9.51758L106.357 10.0645H114.277V11.5488H99.0625V16.334C99.0625 20.9434 98.112 24.3874 96.2109 26.666C95.8984 26.2363 95.5208 25.7871 95.0781 25.3184C96.6406 23.5736 97.4219 20.5918 97.4219 16.373V10.0645H105.684C105.26 9.34831 104.792 8.64518 104.277 7.95508ZM98.9453 24.0293H107.979C108.994 21.4316 110.072 17.877 111.211 13.3652L112.91 13.834C111.693 18.1309 110.612 21.5293 109.668 24.0293H114.492V25.5137H98.9453V24.0293ZM100 14.4395L101.484 13.9316C102.292 16.3014 103.073 18.9577 103.828 21.9004L102.168 22.4082C101.569 19.8301 100.846 17.1738 100 14.4395ZM104.707 13.4629L106.211 13.0332C106.888 15.377 107.487 18.0007 108.008 20.9043L106.289 21.3535C105.911 18.7754 105.384 16.1452 104.707 13.4629ZM124.648 26.2949V20.084H118.965C118.743 22.7923 117.956 25.0384 116.602 26.8223C116.263 26.3926 115.879 25.9434 115.449 25.4746C116.296 24.2767 116.868 22.9486 117.168 21.4902C117.454 20.084 117.598 18.0918 117.598 15.5137V8.54102H133.516V24.0684C133.516 25.6178 132.78 26.3926 131.309 26.3926C130.41 26.3926 129.401 26.373 128.281 26.334C128.216 25.9043 128.118 25.3639 127.988 24.7129C129.121 24.791 130.039 24.8301 130.742 24.8301C131.549 24.8301 131.953 24.446 131.953 23.6777V20.084H126.211V26.2949H124.648ZM126.211 18.6777H131.953V15.0254H126.211V18.6777ZM131.953 9.98633H126.211V13.6191H131.953V9.98633ZM119.072 18.6777H124.648V15.0254H119.16C119.199 16.2884 119.17 17.5059 119.072 18.6777ZM119.16 9.98633V13.6191H124.648V9.98633H119.16ZM135.391 16.0215H140.488V10.3379H136.25V8.79492H153.77V10.3379H149.785V16.0215H154.609V17.5645H149.785V26.4707H148.184V17.5645H142.08C142.035 19.9473 141.693 21.7181 141.055 22.877C140.417 24.153 138.952 25.4355 136.66 26.7246C136.322 26.2559 135.951 25.8001 135.547 25.3574C137.539 24.3418 138.867 23.2806 139.531 22.1738C140.124 21.2819 140.439 19.7454 140.479 17.5645H135.391V16.0215ZM142.09 16.0215H148.184V10.3379H142.09V16.0215ZM157.949 11.7832H162.08C162.399 10.4225 162.669 8.93815 162.891 7.33008L164.551 7.54492C164.329 9.02279 164.059 10.4355 163.74 11.7832H174.531V13.2285H163.369C163.135 14.0879 162.878 14.9147 162.598 15.709H172.285V17.0566C171.426 19.1855 170.088 21.0247 168.271 22.5742C170.101 23.681 172.233 24.459 174.668 24.9082C174.082 25.5592 173.626 26.1061 173.301 26.5488C171.217 25.8587 169.121 24.8496 167.012 23.5215C165.319 24.6348 162.897 25.6895 159.746 26.6855C159.382 26.1647 158.991 25.6829 158.574 25.2402C161.777 24.4069 164.17 23.5247 165.752 22.5938C164.04 21.1289 162.819 19.2832 162.09 17.0566C160.664 20.6243 158.724 23.554 156.27 25.8457C155.918 25.3509 155.573 24.9082 155.234 24.5176C158.171 21.8678 160.329 18.1048 161.709 13.2285H156.289V11.7637C156.823 10.5267 157.311 9.2832 157.754 8.0332L159.336 8.46289C158.88 9.60872 158.418 10.7155 157.949 11.7832ZM170.566 17.0566H163.506C164.092 18.86 165.254 20.4128 166.992 21.7148C168.678 20.3216 169.87 18.7689 170.566 17.0566ZM167.559 8.67773L168.418 7.58398C169.694 8.39128 170.918 9.23112 172.09 10.1035L171.035 11.373C169.902 10.4095 168.743 9.51107 167.559 8.67773ZM175.605 13.6777H183.027V11.2168H177.539V9.88867H183.027V7.4082H184.59V9.88867H189.375V11.2168H184.59V13.6777H186.504C188.639 12.1673 190.391 10.5137 191.758 8.7168L193.145 9.6543C191.966 11.0671 190.57 12.4082 188.955 13.6777H194.551V15.0059H187.148C186.074 15.748 184.919 16.4642 183.682 17.1543H191.426V26.5684H189.902V25.416H180.859V26.5684H179.336V19.3223C178.268 19.7975 177.155 20.2598 175.996 20.709C175.775 20.3053 175.482 19.8301 175.117 19.2832C178.717 18.0332 181.836 16.6074 184.473 15.0059H175.605V13.6777ZM180.859 24.127H189.902V21.8809H180.859V24.127ZM180.859 18.6191V20.6699H189.902V18.4434H181.211C181.094 18.502 180.977 18.5605 180.859 18.6191ZM195.527 17.9551H204.18V9.79102H196.406V8.28711H213.672V9.79102H205.82V17.9551H214.531V19.459H205.82V26.6465H204.18V19.459H195.527V17.9551ZM207.344 16.002C208.776 14.4915 210.065 12.8249 211.211 11.002L212.676 11.9395C211.204 13.9577 209.831 15.6504 208.555 17.0176L207.344 16.002ZM197.402 11.9395L198.633 11.0801C200.091 12.7858 201.348 14.4329 202.402 16.0215L201.016 17.0566C200.013 15.429 198.809 13.7233 197.402 11.9395ZM231.973 17.6816V26.5488H230.371V25.2598H219.629V26.5488H218.027V17.6816H231.973ZM229.102 9.92773C231.146 11.8288 233.079 13.7754 234.902 15.7676L233.516 16.9199C232.995 16.3079 232.467 15.7057 231.934 15.1133C226.087 15.3607 221.621 15.5723 218.535 15.748C217.819 15.8001 217.129 15.9043 216.465 16.0605L215.82 14.3809C216.419 14.1595 216.96 13.8535 217.441 13.4629C219.668 11.64 221.706 9.53711 223.555 7.1543L225.02 8.05273C223.066 10.3444 221.029 12.3822 218.906 14.166C222.897 14.0423 226.823 13.8991 230.684 13.7363C229.792 12.7663 228.887 11.8223 227.969 10.9043L229.102 9.92773ZM230.371 19.127H219.629V23.8535H230.371V19.127Z" fill="white"/>
<g clip-path="url(#clip0_63_10947)">
<path d="M10.4003 26.3086C7.70091 26.3086 5.01689 25.2838 3.09812 23.4971C1.13832 21.671 0.0421017 19.1016 0.00101072 16.268C-0.0422639 13.2391 1.15665 10.2318 3.1987 8.22243C6.2606 5.21366 10.3937 4.28914 15.1513 5.54521C18.6175 6.46296 20.9221 8.47235 21.03 8.54681C21.3073 8.73694 21.4886 9.03594 21.5267 9.36711C21.5641 9.69549 21.4541 10.0252 21.2267 10.2712L17.3906 14.4401C18.7987 16.3722 19.9059 19.8189 17.0157 23.4094C15.6605 25.0937 13.5709 26.1149 11.1326 26.2846C10.8875 26.3015 10.644 26.3086 10.4003 26.3086ZM11.173 7.31683C8.7127 7.31683 6.60614 8.16399 4.88482 9.85546C3.28234 11.4309 2.34313 13.817 2.37615 16.2368C2.40553 18.4431 3.24568 20.4268 4.74103 21.8221C6.33108 23.3049 8.71502 24.1276 10.9632 23.9705C12.7241 23.8484 14.2107 23.1409 15.1491 21.9764C16.3899 20.4325 16.745 18.8467 16.2036 17.259C15.8572 16.2428 15.2424 15.5153 15.0142 15.2682C14.9724 15.2313 14.9327 15.1915 14.8983 15.1472C14.8858 15.1392 14.8762 15.1282 14.8673 15.116C13.8886 14.0482 12.8297 13.6171 11.7182 13.586C10.4555 13.5509 9.4356 14.0812 9.03342 14.4729C8.14854 15.3355 7.77647 16.9292 9.04804 18.3826C10.1963 19.7009 11.6638 18.5952 11.8274 18.4645C12.3345 18.0581 13.0828 18.1322 13.4989 18.63C13.9149 19.123 13.8393 19.8556 13.3308 20.2605C11.9617 21.3519 9.08325 22.024 7.11022 19.7604C4.9582 17.2987 5.66846 14.4754 7.35378 12.8344C8.2255 11.9797 9.84783 11.2171 11.7849 11.2687C12.8151 11.2962 14.2723 11.4902 15.7661 12.7367L18.5037 9.75226C17.5183 9.21592 16.2468 8.23012 14.4703 7.76973C13.3111 7.46614 12.2105 7.31683 11.173 7.31683Z" fill="white"/>
<path d="M22.025 16.0859C22.9248 16.0859 23.6541 15.3746 23.6541 14.4971C23.6541 13.6196 22.9248 12.9082 22.025 12.9082C21.1253 12.9082 20.396 13.6196 20.396 14.4971C20.396 15.3746 21.1253 16.0859 22.025 16.0859Z" fill="white"/>
<path d="M24.0589 10.5517C24.5088 10.9883 24.5088 11.6979 24.0589 12.1358C23.6114 12.5748 22.8843 12.5748 22.436 12.1358C21.9869 11.6979 21.9869 10.9883 22.436 10.5517C22.8843 10.1143 23.6114 10.1143 24.0589 10.5517Z" fill="white"/>
<path d="M17.743 27.1155C17.3761 27.1155 17.0225 26.9279 16.8332 26.5934C16.5572 26.1037 16.7393 25.4903 17.2411 25.2217C20.8702 23.2671 19.9787 19.4649 19.9405 19.3027C19.8055 18.7606 20.1452 18.2127 20.6992 18.0792C21.2532 17.9467 21.8122 18.2747 21.9502 18.8139C22.4309 20.6941 22.276 24.8193 18.2419 26.9905C18.0826 27.0765 17.9102 27.1155 17.743 27.1155Z" fill="white"/>
<path d="M24.0899 24.5829C24.0509 24.5829 24.0099 24.5797 23.9688 24.5722C23.5777 24.5067 23.315 24.1464 23.3818 23.7652C24.0583 19.8713 22.618 17.825 22.6032 17.805C22.3736 17.4902 22.4492 17.0544 22.7706 16.8303C23.089 16.6065 23.5336 16.6742 23.7648 16.9835C23.8403 17.0838 25.5823 19.4785 24.7972 23.9987C24.7377 24.3399 24.4332 24.5829 24.0899 24.5829Z" fill="white"/>
</g>
<defs>
<clipPath id="clip0_63_10947">
<rect width="25" height="22.1154" fill="white" transform="translate(0 5)"/>
</clipPath>
</defs>
</svg>
