<svg width="16" height="16" viewBox="0 0 16 16" fill="none" xmlns="http://www.w3.org/2000/svg">
<g clip-path="url(#clip0_29_6315)">
<path d="M4.58502 4.62754L4.61064 4.60192C4.81555 4.39701 5.15706 4.39701 5.36197 4.60192L8.00018 7.24867L10.6384 4.60192C10.8518 4.39701 11.1848 4.39701 11.3897 4.60192C11.6032 4.80683 11.6032 5.14835 11.3897 5.35326L8.75151 7.99146L11.3897 10.6297C11.5946 10.8346 11.5946 11.1761 11.3897 11.381L11.3641 11.4066C11.1592 11.6115 10.8177 11.6115 10.6128 11.4066L7.97456 8.77695L5.33636 11.4152C5.13145 11.6201 4.78993 11.6201 4.58502 11.4152C4.38011 11.2102 4.38011 10.8687 4.58502 10.6638L7.22323 8.02562L4.58502 5.38741C4.37158 5.17396 4.37158 4.84098 4.58502 4.62754Z" fill="#F02626"/>
<path d="M2.34804 2.33932C5.47291 -0.777007 10.5359 -0.777007 13.6607 2.33932C16.7856 5.46419 16.7856 10.5272 13.6607 13.652C10.5359 16.7769 5.47291 16.7769 2.34804 13.652C-0.776821 10.5357 -0.776821 5.46419 2.34804 2.33932ZM3.09938 12.9007C5.80589 15.6072 10.1944 15.6072 12.9009 12.9007C15.6074 10.1942 15.6074 5.8057 12.9009 3.09919C10.1944 0.392684 5.80589 0.392684 3.09938 3.09919C0.392867 5.8057 0.392867 10.1942 3.09938 12.9007Z" fill="#F02626"/>
</g>
<defs>
<clipPath id="clip0_29_6315">
<rect width="16" height="16" fill="white" transform="matrix(-1 0 0 1 16 0)"/>
</clipPath>
</defs>
</svg>
