<svg width="16" height="16" viewBox="0 0 16 16" fill="none" xmlns="http://www.w3.org/2000/svg">
<path d="M8 0C3.584 0 0 3.584 0 8C0 12.416 3.584 16 8 16C12.416 16 16 12.416 16 8C16 3.584 12.416 0 8 0ZM12.8457 12.8457C12.2149 13.4766 11.4834 13.9703 10.6697 14.3177C9.82857 14.6743 8.92343 14.8571 8 14.8571C7.07657 14.8571 6.17143 14.6743 5.33029 14.3177C4.51657 13.9703 3.776 13.4766 3.15429 12.8457C2.52343 12.2149 2.02971 11.4834 1.68229 10.6697C1.32571 9.82857 1.14286 8.92343 1.14286 8C1.14286 7.07657 1.32571 6.17143 1.68229 5.33029C2.02971 4.51657 2.52343 3.776 3.15429 3.15429C3.78514 2.52343 4.51657 2.02971 5.33029 1.68229C6.17143 1.32571 7.07657 1.14286 8 1.14286C8.92343 1.14286 9.82857 1.32571 10.6697 1.68229C11.4834 2.02971 12.224 2.52343 12.8457 3.15429C13.4766 3.78514 13.9703 4.51657 14.3177 5.33029C14.6743 6.17143 14.8571 7.07657 14.8571 8C14.8571 8.92343 14.6743 9.82857 14.3177 10.6697C13.9703 11.4834 13.4766 12.2149 12.8457 12.8457Z" fill="#3BBD7F"/>
<path d="M11.4924 5.33034L6.86609 9.95663L4.50723 7.59777C4.2878 7.37834 3.92209 7.37834 3.70266 7.59777C3.48323 7.8172 3.48323 8.18291 3.70266 8.40234L6.4638 11.1635C6.57351 11.2732 6.7198 11.3281 6.86609 11.3281C7.01237 11.3281 7.15866 11.2732 7.26837 11.1635L12.2969 6.13491C12.5164 5.91549 12.5164 5.54977 12.2969 5.33034C12.0775 5.11091 11.7118 5.11091 11.4924 5.33034Z" fill="#3BBD7F"/>
</svg>
