<svg width="203" height="32" viewBox="0 0 203 32" fill="none" xmlns="http://www.w3.org/2000/svg">
<path d="M42.82 6.56C42.3 9.5 41.4 11.76 40.14 13.34L41.54 14.52C42.2 13.72 42.78 12.7 43.3 11.5H44.3C43.56 15.12 42.2 17.76 40.24 19.44L41.46 20.86C43.66 18.9 45.16 15.78 45.98 11.5H47.14C46.78 14.38 46.22 16.68 45.5 18.42C44.66 20.26 43.44 21.92 41.8 23.4L42.98 24.9C44.78 23.22 46.16 21.34 47.08 19.22C47.84 17.32 48.42 14.74 48.86 11.5H49.76C49.72 17.2 49.64 20.54 49.52 21.54C49.36 22.7 48.72 23.28 47.62 23.28C47.14 23.28 46.6 23.24 45.96 23.18L46.4 24.88C47.12 24.92 47.62 24.96 47.9 24.96C49.92 24.96 51.04 24.1 51.28 22.38C51.48 20.78 51.58 16.54 51.58 9.66H43.96C44.2 8.86 44.42 7.98 44.62 7.02L42.82 6.56ZM35.94 12.46H37.22V17.42C36.14 17.8 35.02 18.1 33.9 18.34L34.34 20.18C35.32 19.88 36.28 19.56 37.22 19.2V25.06H39.06V18.46C39.52 18.26 39.98 18.04 40.44 17.82V16.02C40 16.24 39.54 16.46 39.06 16.68V12.46H40.52V10.62H39.06V6.62H37.22V10.62H36.18C36.26 9.84 36.32 9.04 36.36 8.24L34.68 8.12C34.6 10.44 34.26 12.66 33.66 14.78L35.32 15.24C35.56 14.34 35.78 13.42 35.94 12.46ZM58.48 15.58C58.92 16.36 59.44 17.34 60.02 18.5L61.12 16.82C60.24 15.56 59.36 14.42 58.48 13.38V12.18H60.54V10.36H58.48V6.62H56.66V10.36H54.08V12.18H56.64C56.04 14.56 55.08 16.68 53.74 18.54L54.56 20.6C55.4 19.2 56.1 17.68 56.66 16V24.98H58.48V15.58ZM71.56 11.66H68.7V9.12H72.14V7.32H60.66V9.12H63.98V11.66H61.14V25.1H62.96V24.1H69.74V25.1H71.56V11.66ZM66.94 9.12V11.66H65.74V9.12H66.94ZM62.96 22.32V19.5L63.94 20.28C65 19 65.6 16.72 65.72 13.46H66.94V17.72C66.94 18.88 67.44 19.48 68.48 19.48H69.74V22.32H62.96ZM62.96 18.8V13.46H64.18C64.1 15.9 63.68 17.68 62.96 18.8ZM68.48 13.46H69.74V17.86H68.94C68.62 17.86 68.48 17.66 68.48 17.28V13.46ZM76 14.9V25.08H77.86V11.94C78.64 10.46 79.28 8.92 79.76 7.3L78.06 6.5C77.14 9.78 75.68 12.66 73.72 15.12L74.28 17.02C74.88 16.34 75.46 15.62 76 14.9ZM79.26 9.82V11.64H82.8C81.86 15.08 80.36 17.92 78.3 20.16L79.28 21.78C81.64 19.14 83.32 15.76 84.32 11.64V19.28H81.52V21.1H84.32V25.06H86.18V21.1H89.04V19.28H86.18V11.64C87.1 15.3 88.72 18.6 91.04 21.54L92.26 20C90.1 17.56 88.56 14.76 87.68 11.64H91.48V9.82H86.18V6.58H84.32V9.82H79.26ZM93.96 8.22V10.02H98.76C97.84 10.78 97.04 11.38 96.36 11.84C96.12 11.96 95.82 12.04 95.44 12.08L95.86 13.7C101.1 13.52 105.38 13.3 108.7 13.02C109.22 13.54 109.7 14.04 110.12 14.52L111.72 13.42C110.84 12.46 109.56 11.32 107.92 10.02H112.08V8.22H104.08C103.88 7.58 103.68 7.02 103.46 6.5L101.24 6.84C101.48 7.26 101.72 7.72 101.92 8.22H93.96ZM101.16 10.02H106.84L105.98 10.58C106.4 10.94 106.82 11.28 107.22 11.64C104.74 11.8 101.84 11.96 98.52 12.08C99.3 11.56 100.18 10.86 101.16 10.02ZM98.7 19.04H107.28V20.26H98.7V19.04ZM107.28 17.44H98.7V16.14H107.28V17.44ZM98.7 21.86H107.28V22.66C107.28 23.06 107 23.28 106.48 23.28L104.56 23.2L105.06 25.04H107.1C108.5 25.04 109.22 24.38 109.22 23.06V14.52H96.8V25.06H98.7V21.86ZM115.92 7.62V9.46H130.28V7.62H115.92ZM114 13.14V15.04H120.46C118.48 19 116.88 21.44 115.66 22.36C115.56 22.42 115.4 22.48 115.2 22.54L115.7 24.48C120.42 24.16 124.78 23.72 128.8 23.16C129.16 23.84 129.48 24.52 129.8 25.2L131.5 24.02C130.5 22.02 129.1 19.66 127.28 16.96L125.76 17.9C126.52 19.1 127.22 20.28 127.86 21.42C124.62 21.88 121.34 22.22 118.06 22.42C119.36 20.94 120.86 18.48 122.58 15.04H132.06V13.14H114ZM134.88 7.36V9.22H141.96V16.3H134.08V18.12H141.96V25.04H143.88V18.12H151.92V16.3H143.88V9.22H151.16V7.36H134.88ZM137.68 10.16L135.9 11.02C136.64 12.34 137.34 13.84 138 15.52L139.78 14.64C139.1 13 138.4 11.52 137.68 10.16ZM148.48 10.08C147.92 11.54 147.18 13.02 146.24 14.54L147.96 15.42C148.88 13.94 149.64 12.44 150.22 10.9L148.48 10.08ZM169.84 16.58H156.16V25.08H158.08V24.26H167.92V25.08H169.84V16.58ZM158.08 22.44V18.4H167.92V22.44H158.08ZM154.86 14.72C159.98 14.52 164.64 14.24 168.82 13.88C169.28 14.62 169.74 15.4 170.22 16.24L172.08 15.32C170.62 12.9 169.08 10.7 167.46 8.7L165.74 9.52C166.4 10.36 167.06 11.24 167.7 12.2C164.52 12.5 161.24 12.72 157.84 12.84C159.52 11.32 161.16 9.44 162.78 7.2L160.8 6.52C158.12 10.44 156.02 12.58 154.5 12.92L154.86 14.72Z" fill="white"/>
<g clip-path="url(#clip0_152470_240266)">
<path d="M10.4004 26.3089C7.70103 26.3089 5.01701 25.2841 3.09824 23.4974C1.13845 21.6713 0.0422238 19.1018 0.00113279 16.2682C-0.0421418 13.2394 1.15678 10.2321 3.19882 8.22268C6.26073 5.21391 10.3938 4.28938 15.1514 5.54546C18.6176 6.4632 20.9222 8.4726 21.0301 8.54706C21.3074 8.73718 21.4887 9.03619 21.5269 9.36735C21.5642 9.69574 21.4542 10.0255 21.2268 10.2715L17.3908 14.4403C18.7988 16.3724 19.906 19.8191 17.0158 23.4096C15.6606 25.0939 13.571 26.1151 11.1327 26.2848C10.8877 26.3017 10.6441 26.3089 10.4004 26.3089ZM11.1731 7.31707C8.71282 7.31707 6.60626 8.16423 4.88494 9.8557C3.28246 11.4312 2.34325 13.8173 2.37627 16.237C2.40565 18.4434 3.2458 20.427 4.74115 21.8224C6.3312 23.3051 8.71514 24.1279 10.9633 23.9708C12.7243 23.8486 14.2108 23.1411 15.1492 21.9767C16.39 20.4328 16.7452 18.8469 16.2037 17.2592C15.8573 16.2431 15.2425 15.5155 15.0143 15.2684C14.9725 15.2316 14.9328 15.1918 14.8984 15.1474C14.8859 15.1395 14.8763 15.1284 14.8675 15.1162C13.8887 14.0485 12.8299 13.6173 11.7183 13.5862C10.4556 13.5511 9.43572 14.0814 9.03354 14.4732C8.14866 15.3357 7.77659 16.9294 9.04817 18.3828C10.1965 19.7011 11.664 18.5955 11.8275 18.4648C12.3346 18.0584 13.083 18.1325 13.499 18.6302C13.915 19.1232 13.8395 19.8558 13.331 20.2608C11.9619 21.3522 9.08337 22.0242 7.11034 19.7606C4.95832 17.2989 5.66858 14.4756 7.35391 12.8346C8.22562 11.98 9.84795 11.2174 11.785 11.2689C12.8152 11.2965 14.2724 11.4905 15.7662 12.7369L18.5039 9.7525C17.5185 9.21617 16.2469 8.23036 14.4705 7.76997C13.3112 7.46638 12.2106 7.31707 11.1731 7.31707Z" fill="white"/>
<path d="M22.0251 16.0859C22.9248 16.0859 23.6542 15.3746 23.6542 14.4971C23.6542 13.6196 22.9248 12.9082 22.0251 12.9082C21.1254 12.9082 20.396 13.6196 20.396 14.4971C20.396 15.3746 21.1254 16.0859 22.0251 16.0859Z" fill="white"/>
<path d="M24.0589 10.5517C24.5087 10.9883 24.5087 11.6979 24.0589 12.1358C23.6114 12.5748 22.8843 12.5748 22.4359 12.1358C21.9868 11.6979 21.9868 10.9883 22.4359 10.5517C22.8843 10.1143 23.6114 10.1143 24.0589 10.5517Z" fill="white"/>
<path d="M17.7432 27.115C17.3763 27.115 17.0226 26.9274 16.8333 26.593C16.5574 26.1032 16.7394 25.4898 17.2413 25.2212C20.8704 23.2666 19.9789 19.4644 19.9407 19.3022C19.8057 18.7601 20.1454 18.2123 20.6994 18.0787C21.2534 17.9462 21.8124 18.2742 21.9504 18.8134C22.431 20.6936 22.2762 24.8188 18.2421 26.9901C18.0828 27.076 17.9104 27.115 17.7432 27.115Z" fill="white"/>
<path d="M24.0902 24.5827C24.0513 24.5827 24.0102 24.5795 23.9691 24.572C23.5781 24.5064 23.3154 24.1462 23.3822 23.7649C24.0587 19.871 22.6184 17.8248 22.6036 17.8047C22.374 17.49 22.4496 17.0542 22.771 16.8301C23.0894 16.6063 23.534 16.674 23.7651 16.9833C23.8407 17.0836 25.5827 19.4782 24.7976 23.9984C24.7381 24.3396 24.4336 24.5827 24.0902 24.5827Z" fill="white"/>
</g>
<defs>
<clipPath id="clip0_152470_240266">
<rect width="25" height="22.1154" fill="white" transform="translate(0 5)"/>
</clipPath>
</defs>
</svg>
