<svg width="16" height="16" viewBox="0 0 16 16" fill="none" xmlns="http://www.w3.org/2000/svg">
<path d="M13.7163 7.14802H12.502V3.14802C12.502 1.88552 11.4788 0.862305 10.2163 0.862305H5.78774C4.52524 0.862305 3.50202 1.88552 3.50202 3.14802V7.14802H2.28774C1.97167 7.14802 1.71631 7.40338 1.71631 7.71945V14.5766C1.71631 14.8927 1.97167 15.148 2.28774 15.148H13.7163C14.0324 15.148 14.2877 14.8927 14.2877 14.5766V7.71945C14.2877 7.40338 14.0324 7.14802 13.7163 7.14802ZM4.78774 3.14802C4.78774 2.59623 5.23595 2.14802 5.78774 2.14802H10.2163C10.7681 2.14802 11.2163 2.59623 11.2163 3.14802V7.14802H4.78774V3.14802ZM13.002 13.8623H3.00202V8.43373H13.002V13.8623ZM7.50202 11.3802V12.3266C7.50202 12.4052 7.56631 12.4694 7.64488 12.4694H8.35917C8.43774 12.4694 8.50202 12.4052 8.50202 12.3266V11.3802C8.64943 11.2743 8.75945 11.1245 8.81626 10.9521C8.87306 10.7798 8.87372 10.5939 8.81813 10.4211C8.76254 10.2484 8.65358 10.0977 8.50692 9.99087C8.36027 9.884 8.18349 9.82642 8.00202 9.82642C7.82056 9.82642 7.64378 9.884 7.49713 9.99087C7.35047 10.0977 7.24151 10.2484 7.18592 10.4211C7.13033 10.5939 7.13099 10.7798 7.18779 10.9521C7.2446 11.1245 7.35462 11.2743 7.50202 11.3802Z" fill="#1890FF"/>
</svg>
