<?xml version="1.0" standalone="no"?><!DOCTYPE svg PUBLIC "-//W3C//DTD SVG 1.1//EN" "http://www.w3.org/Graphics/SVG/1.1/DTD/svg11.dtd"><svg t="1630206682013" class="icon" viewBox="0 0 1024 1024" version="1.1" xmlns="http://www.w3.org/2000/svg" p-id="948" xmlns:xlink="http://www.w3.org/1999/xlink" width="200" height="200"><defs><style type="text/css"></style></defs><path d="M900.309333 409.088h-51.328V358.912a38.656 38.656 0 0 0-38.357333-38.912 38.698667 38.698667 0 0 0-38.357333 38.912v50.176h-51.242667a38.656 38.656 0 0 0-38.357333 38.869333c0 21.461333 17.194667 38.912 38.357333 38.912H772.266667v50.218667c0 21.461333 17.237333 38.912 38.357333 38.912 21.162667 0 38.357333-17.493333 38.357333-38.912v-50.218667H900.266667c21.12 0 38.357333-17.493333 38.357333-38.912a38.698667 38.698667 0 0 0-38.357333-38.869333" fill="#000000" opacity=".4" p-id="949"></path><path d="M405.333333 640.682667c-172.629333 0-320 27.562667-320 137.813333S231.808 917.333333 405.333333 917.333333c172.586667 0 320-27.605333 320-137.856 0-110.250667-146.474667-138.794667-320-138.794666" fill="#000000" p-id="950"></path><path d="M405.333333 535.637333c117.546667 0 211.754667-95.402667 211.754667-214.442666 0-119.04-94.208-214.528-211.754667-214.528S193.578667 202.154667 193.578667 321.194667c0 119.04 94.208 214.442667 211.754666 214.442666" fill="#000000" opacity=".4" p-id="951"></path></svg>