<?xml version="1.0" standalone="no"?><!DOCTYPE svg PUBLIC "-//W3C//DTD SVG 1.1//EN" "http://www.w3.org/Graphics/SVG/1.1/DTD/svg11.dtd"><svg t="1630206690107" class="icon" viewBox="0 0 1024 1024" version="1.1" xmlns="http://www.w3.org/2000/svg" p-id="1226" xmlns:xlink="http://www.w3.org/1999/xlink" width="200" height="200"><defs><style type="text/css"></style></defs><path d="M686.250667 85.333333H337.749333C186.752 85.333333 85.333333 182.442667 85.333333 327.04v369.92C85.333333 841.557333 186.752 938.666667 337.749333 938.666667h348.501334C837.205333 938.666667 938.666667 841.514667 938.666667 696.917333v-369.92C938.666667 182.485333 837.205333 85.333333 686.250667 85.333333" fill="#000000" opacity=".4" p-id="1227"></path><path d="M475.52 329.386667L314.88 489.386667a32.981333 32.981333 0 0 0 0 45.397333l160.64 159.914667a32 32 0 0 0 45.184-45.397334L415.018667 544h271.146666a32 32 0 1 0 0-64H415.018667l105.685333-105.216a31.957333 31.957333 0 0 0 0.085333-45.269333 32.042667 32.042667 0 0 0-45.269333-0.085334" fill="#000000" p-id="1228"></path></svg>