<?xml version="1.0" standalone="no"?><!DOCTYPE svg PUBLIC "-//W3C//DTD SVG 1.1//EN" "http://www.w3.org/Graphics/SVG/1.1/DTD/svg11.dtd"><svg t="1630206678120" class="icon" viewBox="0 0 1024 1024" version="1.1" xmlns="http://www.w3.org/2000/svg" p-id="806" xmlns:xlink="http://www.w3.org/1999/xlink" width="200" height="200"><defs><style type="text/css"></style></defs><path d="M462.378667 527.36l-0.085334-15.061333c0-62.805333 3.669333-120.064 9.216-157.354667l4.864-23.210667c2.688-12.288 6.229333-26.282667 9.941334-33.450666A77.44 77.44 0 0 1 554.666667 256h2.474666c18.474667 0.597333 57.301333 16.810667 57.301334 17.408 62.464 26.197333 182.997333 105.301333 238.634666 161.706667l16.213334 16.896c4.181333 4.608 8.96 10.026667 11.946666 14.250666 9.813333 13.056 14.762667 29.226667 14.762667 45.397334 0 18.048-5.546667 34.858667-16 48.554666l-16.64 17.92-3.712 3.84c-50.517333 54.741333-182.357333 144.298667-251.306667 171.690667l-10.453333 4.010667c-12.544 4.48-30.08 9.813333-40.746667 10.325333a85.333333 85.333333 0 0 1-38.826666-9.386667 80.469333 80.469333 0 0 1-34.474667-38.570666c-4.309333-11.178667-11.093333-44.8-11.093333-45.397334-6.272-33.877333-9.856-87.338667-10.368-147.242666zM128 512a64.426667 64.426667 0 0 1 64.128-64.768l157.866667 13.952c27.733333 0 50.304 22.741333 50.304 50.773333 0 28.16-22.528 50.816-50.346667 50.816l-157.824 13.952A64.426667 64.426667 0 0 1 128 512z" fill="#000000" p-id="807"></path></svg>