<?xml version="1.0" encoding="UTF-8"?>
<svg width="89px" height="88px" viewBox="0 0 89 88" version="1.1" xmlns="http://www.w3.org/2000/svg" xmlns:xlink="http://www.w3.org/1999/xlink">
    <title>编组 11</title>
    <g id="页面-1" stroke="none" stroke-width="1" fill="none" fill-rule="evenodd">
        <g id="空气净化器-滑动" transform="translate(-331.000000, -934.000000)">
            <g id="编组-14" transform="translate(20.000000, 38.432415)">
                <g id="编组-11" transform="translate(311.500000, 895.567585)">
                    <circle id="椭圆形" stroke="#C5C6CA" stroke-width="2" cx="44" cy="44" r="43"></circle>
                    <g id="手动" transform="translate(23.000105, 22.958331)" fill="#C5C6CA" fill-rule="nonzero">
                        <rect id="矩形" opacity="0" x="0" y="0" width="41.9997905" height="41.9997905"></rect>
                        <path d="M33.6972384,16.3078588 L33.8149635,16.3078588 C35.9926684,16.3078588 37.7579164,18.0756206 37.7579164,20.2562581 L37.7579164,31.9826834 C37.7579164,37.5149251 33.2787069,42 27.7533778,42 L19.5922215,42 C16.3932897,41.9993957 13.3876997,40.4684532 11.5062668,37.8812973 L3.52044131,26.9062598 C2.44486279,25.4276653 2.54317037,23.3998097 3.75672938,22.0321894 L4.12791955,21.6138673 C5.51611213,20.0503439 7.90727226,19.9095765 9.4687009,21.2994449 C9.50640645,21.3329609 9.54327411,21.3671054 9.57951332,21.4020878 L11.102608,22.8705094 C11.2149518,22.9789629 11.3658211,23.0382756 11.5219455,23.0353677 C11.67807,23.0324598 11.826626,22.96757 11.9348532,22.8550082 C12.0404549,22.7450861 12.0993881,22.5985415 12.0992913,22.4461125 L12.0992913,8.94208008 C12.0992913,6.76144259 13.8647488,4.99409977 16.0422442,4.99409977 L16.1599693,4.99409977 C18.3376741,4.99409977 20.1029221,6.76165206 20.1029222,8.94208008 L20.1029222,12.5123765 C20.6658868,12.2176919 21.2920249,12.0642126 21.9274517,12.0651468 L22.0449674,12.0651468 C23.8544147,12.0651468 25.3791851,13.2855497 25.8431728,14.9492023 C26.441587,14.6030018 27.1208987,14.4211775 27.8122403,14.4221625 L27.9299655,14.4221625 C29.5942465,14.4221625 31.0176309,15.4544566 31.5962015,16.9144992 C32.2248376,16.5171106 32.9535318,16.306712 33.6972384,16.3078588 L33.6972384,16.3078588 Z M13.0105087,36.7838564 C14.5419275,38.8897231 16.9883939,40.1358481 19.5922215,40.1362986 L27.7533778,40.1362986 C32.2508117,40.1362986 35.8967287,36.4855637 35.8967287,31.9822644 L35.8967287,20.2558391 C35.8967287,19.1047726 34.9645638,18.1715602 33.8149635,18.1715603 L33.6972384,18.1715603 C32.5476382,18.1715603 31.6156827,19.1047726 31.6156827,20.2558391 L31.6156827,24.4396886 C31.6156827,25.5101072 30.0117306,25.5101072 30.0117306,24.4396886 L30.0117306,18.3703523 C30.0117306,17.2190762 29.0795657,16.2858639 27.9299655,16.2858639 L27.8122403,16.2858639 C26.6626401,16.2858639 25.7306846,17.2190762 25.7306847,18.3701428 L25.7306847,23.0255211 C25.7306847,24.0959397 24.1267325,24.0959397 24.1267325,23.0255211 L24.1267325,16.0133366 C24.1267325,14.8620605 23.1945676,13.9288482 22.0449674,13.9288482 L21.9272423,13.9288482 C20.777642,13.9288482 19.8456866,14.8620605 19.8456866,16.0131271 L19.8456866,21.6113536 C19.8456866,22.6817722 18.2417344,22.6817722 18.2417344,21.6113536 L18.2417344,8.94228955 C18.2417344,7.79101348 17.3095695,6.85759172 16.1599693,6.85759172 L16.0422442,6.85759172 C14.8926439,6.85759172 13.9606885,7.79101348 13.9606885,8.94208008 L13.9606885,22.445903 C13.9606885,23.0806131 13.7151835,23.6901861 13.2757044,24.1472611 C12.3372552,25.1232064 10.7860909,25.1525329 9.81161192,24.2128269 L8.28851728,22.7441958 C7.91204564,22.3809715 7.40365579,22.1871035 6.88092284,22.2074276 C6.35818989,22.2277517 5.86638739,22.4605076 5.51925428,22.8518661 L5.14785461,23.2699787 C4.51575704,23.9822746 4.46451185,25.038466 5.02468317,25.8086094 L13.0105087,36.7838564 Z M24.0372866,8.06479769 C24.0372866,8.58532587 23.6151761,9.00723976 23.0946479,9.00723976 C22.5741197,9.00723976 22.1521178,8.58532587 22.1520092,8.06479769 C22.1520092,4.6520267 19.38526,1.88527737 15.9724889,1.88527737 C12.5597179,1.88527737 9.7929686,4.65202665 9.7929686,8.06479769 C9.79303886,8.40161689 9.61338831,8.71288072 9.32170603,8.88131061 C9.03002376,9.04974049 8.67063609,9.04974049 8.37895381,8.88131061 C8.08727153,8.71288072 7.90769122,8.40161689 7.90769122,8.06479769 C7.90769122,3.61072515 11.5184164,0 15.9724889,0 C20.4265615,0 24.0372866,3.61072515 24.0372866,8.06479769 Z" id="形状"></path>
                    </g>
                </g>
            </g>
        </g>
    </g>
</svg>