<?xml version="1.0" encoding="UTF-8"?>
<svg width="89px" height="88px" viewBox="0 0 89 88" version="1.1" xmlns="http://www.w3.org/2000/svg" xmlns:xlink="http://www.w3.org/1999/xlink">
    <title>编组 11</title>
    <g id="页面-1" stroke="none" stroke-width="1" fill="none" fill-rule="evenodd">
        <g id="空气净化器" transform="translate(-554.000000, -1034.000000)">
            <g id="编组-11" transform="translate(554.500000, 1034.000000)">
                <circle id="椭圆形" fill="#2AC9DC" cx="44" cy="44" r="44"></circle>
                <g id="编组-3" transform="translate(23.840000, 23.890834)" stroke="#FFFFFF" stroke-width="2">
                    <g id="编组-8">
                        <path d="M16.5211896,1.24361186 C15.9363665,2.9056225 15.6183441,4.69313228 15.6183441,6.55493888 C15.6183441,10.9753131 17.4100547,14.9772108 20.3068589,17.874015 C23.2036631,20.7708192 27.2055608,22.5625298 31.625935,22.5625298 C34.3482392,22.5625298 36.9117479,21.8828328 39.1562292,20.6841371 L39.311,20.598 L39.2991454,20.9602808 C39.0775147,25.7428728 37.1024666,30.0675071 34.0021027,33.3060819 L33.7081659,33.6064973 C30.2408879,37.0737754 25.4508879,39.2183314 20.16,39.2183314 C14.8691121,39.2183314 10.0791121,37.0737754 6.61183407,33.6064973 C3.14455605,30.1392193 1,25.3492193 1,20.0583314 C1,15.1187556 2.86914619,10.615706 5.93890249,7.21807462 C8.67213319,4.1929125 12.35694,2.0436204 16.5211896,1.24361186 Z" id="形状结合"></path>
                        <polyline id="路径-4" stroke-linecap="round" stroke-linejoin="round" points="24.2922484 3.83430411 33.064465 3.83430411 24.2922484 12.6203746 34.7070415 12.6203746"></polyline>
                    </g>
                </g>
            </g>
        </g>
    </g>
</svg>