<svg t="1651215602711" class="icon" viewBox="0 0 1025 1024" version="1.1" xmlns="http://www.w3.org/2000/svg" p-id="9161" width="20" height="20">
    <path d="M451.9 362.9c0 53.1-43 96.1-96.2 96.1H96.1C43 459 0 416 0 362.9V103.4c0-53.1 43-96.2 96.1-96.2h259.7c53.1 0 96.2 43 96.2 96.2l-0.1 259.5z" fill="#fd7a9d" p-id="9162"></path>
    <path d="M1024.1 362.9c0 53.1-43.2 96.1-96.2 96.1H668.2c-53.1 0-96.1-43-96.1-96.1V103.4c0-53.1 43-96.2 96.1-96.2h259.7c53.1 0 96.2 43 96.2 96.2v259.5z" fill="#2bc8b8" p-id="9163"></path>
    <path d="M451.9 915.9c0 53.1-43 96.1-96.2 96.1H96.1c-53.1 0-96.1-43-96.1-96.1V656.3c0-53.1 43-96.1 96.1-96.1h259.7c53.1 0 96.2 43 96.2 96.1l-0.1 259.6z" fill="#5cb0fc" p-id="9164"></path>
    <path d="M1024.1 915.9c0 53.1-43.2 96.1-96.2 96.1H668.2c-53.1 0-96.1-43-96.1-96.1V656.3c0-53.1 43-96.1 96.1-96.1h259.7c53.1 0 96.2 43 96.2 96.1v259.6z" fill="#ffb81f" p-id="9165"></path>
</svg>