<!-- <svg t="1656491145851" class="icon" viewBox="0 0 1024 1024" version="1.1" xmlns="http://www.w3.org/2000/svg" p-id="2211" width="16" height="16">
    <path d="M899.1 869.6l-53-305.6H864c14.4 0 26-11.6 26-26V346c0-14.4-11.6-26-26-26H618V138c0-14.4-11.6-26-26-26H432c-14.4 0-26 11.6-26 26v182H160c-14.4 0-26 11.6-26 26v192c0 14.4 11.6 26 26 26h17.9l-53 305.6c-0.3 1.5-0.4 3-0.4 4.4 0 14.4 11.6 26 26 26h723c1.5 0 3-0.1 4.4-0.4 14.2-2.4 23.7-15.9 21.2-30zM204 390h272V182h72v208h272v104H204V390z m468 440V674c0-4.4-3.6-8-8-8h-48c-4.4 0-8 3.6-8 8v156H416V674c0-4.4-3.6-8-8-8h-48c-4.4 0-8 3.6-8 8v156H202.8l45.1-260H776l45.1 260H672z" p-id="2212" fill="#8C8C8C"></path>
</svg> -->

<svg t="1656491804429" class="icon" fill="#8c8c8c" viewBox="0 0 1024 1024" version="1.1" xmlns="http://www.w3.org/2000/svg" p-id="3108" width="16" height="16">
    <path d="M720 319H600V177c0-35.2-28.8-64-64-64h-48c-35.2 0-64 28.8-64 64v142H304c-35.2 0-64 28.8-64 64v108c0 2.2 1.8 4 4 4h536c2.2 0 4-1.8 4-4V383c0-35.2-28.8-64-64-64zM780 511H244c-2.2 0-4 1.8-4 4v378c0 8.8 7.2 16 16 16h82.4c2.2 0 4-1.8 4-4V753c0-2.2 1.8-4 4-4h24c2.2 0 4 1.8 4 4v152c0 2.2 1.8 4 4 4h62.4c2.2 0 4-1.8 4-4V753c0-2.2 1.8-4 4-4h24c2.2 0 4 1.8 4 4v152c0 2.2 1.8 4 4 4h62.4c2.2 0 4-1.8 4-4V753c0-2.2 1.8-4 4-4h24c2.2 0 4 1.8 4 4v152c0 2.2 1.8 4 4 4h62.4c2.2 0 4-1.8 4-4V753c0-2.2 1.8-4 4-4h24c2.2 0 4 1.8 4 4v152c0 2.2 1.8 4 4 4H768c8.8 0 16-7.2 16-16V515c0-2.2-1.8-4-4-4z" p-id="3109" fill="#c9c9c9"></path>
</svg>