<svg t="1647506419757" class="icon" viewBox="0 0 1024 1024" version="1.1" xmlns="http://www.w3.org/2000/svg" p-id="14018" width="24" height="24">
    <path d="M835.699093 1023.271563a187.390361 187.390361 0 0 1-132.757603-54.632758l-224.055012-224.115715A377.937281 377.937281 0 0 1 31.626297 229.093367a45.466596 45.466596 0 0 1 33.204576-26.648646 45.95222 45.95222 0 0 1 40.731757 12.504831l160.4382 160.377498 109.265517-109.265517-160.438201-160.377497A45.588002 45.588002 0 0 1 228.97196 31.687a377.51236 377.51236 0 0 1 418.851147 79.399609 380.972435 380.972435 0 0 1 97.124904 367.860572l224.055012 224.115715a187.633173 187.633173 0 0 1-132.696899 320.330073z m-344.125674-376.359001a45.588002 45.588002 0 0 1 32.172624 13.354674l243.601399 243.601399a96.639279 96.639279 0 0 0 136.703302-136.642599L660.449345 523.624637a45.405892 45.405892 0 0 1-10.683739-47.469797 287.00409 287.00409 0 0 0-316.809296-381.215247l138.767207 138.706503a45.466596 45.466596 0 0 1 0 64.345249L298.173454 471.541407a46.74136 46.74136 0 0 1-64.345248 0L95.060999 332.895607a286.943387 286.943387 0 0 0 381.154544 316.687889 46.498548 46.498548 0 0 1 15.357876-2.549528z" p-id="14019" fill="#448b8e"></path>
</svg>