<svg t="1644918404942" class="icon" viewBox="0 0 1024 1024" version="1.1" xmlns="http://www.w3.org/2000/svg" p-id="1805" width="16" height="16">
    <path d="M64 64m128 0l640 0q128 0 128 128l0 640q0 128-128 128l-640 0q-128 0-128-128l0-640q0-128 128-128Z" fill="#904EE2" p-id="1806" />
    <path d="M699.072 496.448l-0.128-0.256a30.656 30.656 0 0 0 5.12-16.192 32 32 0 0 0-32-32H512V288a32 32 0 0 0-32-32 31.36 31.36 0 0 0-25.984 14.272 31.872 31.872 0 0 0-4.224 8.32L325.184 527.168l0.128 0.192A31.296 31.296 0 0 0 320 544a32 32 0 0 0 32 32H512v160a31.552 31.552 0 1 0 58.752 16.576h0.192l0.832-1.6c0.704-1.344 1.472-2.56 1.984-3.968l125.312-250.56z" fill="#FFFFFF" p-id="1807" />
</svg>