<svg t="1647506501088" class="icon" viewBox="0 0 1024 1024" version="1.1" xmlns="http://www.w3.org/2000/svg" p-id="15892" width="24" height="24">
    <path d="M365.714286 199.972571h292.571428V136.045714H365.714286v64zM658.285714 62.902857a73.142857 73.142857 0 0 1 73.142857 73.142857v55.954286l189.147429 0.073143a40.594286 40.594286 0 0 1 0 81.188571h-42.934857l0.073143 613.668572a73.142857 73.142857 0 0 1-73.142857 73.142857H219.428571a73.142857 73.142857 0 0 1-73.142857-73.142857v-613.668572h-39.497143a40.594286 40.594286 0 1 1 0-81.188571H292.571429v-56.027429a73.142857 73.142857 0 0 1 73.142857-73.142857h292.571428z m137.142857 211.456h-566.857142V877.714286h566.857142V274.285714zM402.285714 365.714286a36.571429 36.571429 0 0 1 36.571429 36.571428v292.571429a36.571429 36.571429 0 1 1-73.142857 0v-292.571429a36.571429 36.571429 0 0 1 36.571428-36.571428z m219.428572 0a36.571429 36.571429 0 0 1 36.571428 36.571428v292.571429a36.571429 36.571429 0 1 1-73.142857 0v-292.571429a36.571429 36.571429 0 0 1 36.571429-36.571428z" p-id="15893" fill="#448b8e"></path>
</svg>