<svg t="1647338098566" class="icon" viewBox="0 0 1024 1024" version="1.1" xmlns="http://www.w3.org/2000/svg" p-id="7192" width="24" height="24"><path d="M243.0771072 96.27025341a66.2803595 66.2803595 0 1 0 132.560719 0 66.2803595 66.2803595 0 1 0-132.560719 0zM244.31986394 510.17729011a66.2803595 66.2803595 0 1 0 132.560719 0 66.2803595 66.2803595 0 1 0-132.560719 0zM244.31986394 934.48205822a66.2803595 66.2803595 0 1 0 132.560719 0 66.2803595 66.2803595 0 1 0-132.560719 0zM678.08339168 96.27025341a66.2803595 66.2803595 0 1 0 132.56071901 0 66.2803595 66.2803595 0 1 0-132.56071901 0zM679.32614842 510.17729011a66.2803595 66.2803595 0 1 0 132.56071901 0 66.2803595 66.2803595 0 1 0-132.56071901 0zM679.32614842 934.48205822a66.2803595 66.2803595 0 1 0 132.56071901 0 66.2803595 66.2803595 0 1 0-132.56071901 0z" fill="#909399" p-id="7193"></path></svg>