<svg t="1652259860588" class="icon" viewBox="0 0 1152 1024" version="1.1" xmlns="http://www.w3.org/2000/svg" p-id="24541" width="20" height="20">
    <path d="M64 601.6h832V960H64z" fill="#00FFB4" p-id="24542"></path>
    <path d="M1017.6 768h-51.2c-25.6 0-44.8-19.2-44.8-38.4V371.2c0-38.4-32-70.4-70.4-70.4L256 294.4V134.4C256 89.6 288 57.6 332.8 57.6h665.6c51.2 0 89.6 38.4 89.6 89.6v544c0 44.8-32 76.8-70.4 76.8z" fill="#A6FFE5" p-id="24543"></path>
    <path d="M832 320c38.4 0 64 25.6 64 64v512c0 38.4-25.6 64-64 64H128c-38.4 0-64-25.6-64-64V384c0-38.4 25.6-64 64-64h704m0-64H128C57.6 256 0 313.6 0 384v512c0 70.4 57.6 128 128 128h704c70.4 0 128-57.6 128-128V384c0-70.4-57.6-128-128-128z" p-id="24544"></path>
    <path d="M992 832H960v-64h32c51.2 0 96-44.8 96-96v-512c0-51.2-44.8-96-96-96h-640C300.8 64 256 108.8 256 160V256H192V160C192 70.4 262.4 0 352 0h640C1081.6 0 1152 70.4 1152 160v512c0 89.6-70.4 160-160 160z" p-id="24545"></path>
    <path d="M352 582.4m-128 0a128 128 0 1 0 256 0 128 128 0 1 0-256 0Z" fill="#FFFFFF" p-id="24546"></path>
    <path d="M352 486.4c51.2 0 96 44.8 96 96s-44.8 96-96 96S256 633.6 256 582.4s44.8-96 96-96m0-64C262.4 422.4 192 492.8 192 582.4s70.4 160 160 160S512 672 512 582.4 441.6 422.4 352 422.4z" p-id="24547"></path>
    <path d="M358.4 992c-140.8 0-236.8-32-262.4-64 12.8-121.6 115.2-217.6 243.2-217.6h32c128 0 230.4 102.4 243.2 224-6.4 19.2-96 57.6-256 57.6z" fill="#FFFFFF" p-id="24548"></path>
    <path d="M364.8 742.4c102.4 0 192 76.8 204.8 179.2-19.2 12.8-96 38.4-211.2 38.4-128 0-204.8-25.6-224-44.8 19.2-102.4 102.4-172.8 204.8-172.8h25.6c-6.4 0 0 0 0 0m0-64h-25.6c-140.8 0-262.4 108.8-275.2 256 25.6 64 160 89.6 294.4 89.6 140.8 0 275.2-32 281.6-89.6-6.4-147.2-128-256-275.2-256z" p-id="24549"></path>
    <path d="M704 640h128v64h-128zM640 512h192v64h-192zM576 384h256v64H576z" p-id="24550"></path>
</svg>