<svg width="24" height="22" viewBox="0 0 24 22" fill="none" xmlns="http://www.w3.org/2000/svg">
<path d="M9.98433 20.8878C7.39295 20.8878 4.81631 19.8992 2.9743 18.1757C1.0929 16.4142 0.0405346 13.9356 0.00108748 11.2022C-0.0404559 8.28049 1.1105 5.37956 3.07085 3.44123C6.01027 0.538878 9.97798 -0.352947 14.5453 0.858704C17.8728 1.74399 20.0852 3.68232 20.1888 3.75415C20.455 3.93754 20.629 4.22597 20.6657 4.54543C20.7016 4.8622 20.5959 5.18028 20.3776 5.41756L16.695 9.439C18.0468 11.3028 19.1097 14.6275 16.3351 18.0911C15.0341 19.7158 13.0281 20.7009 10.6873 20.8646C10.4521 20.8809 10.2183 20.8878 9.98433 20.8878ZM10.7261 2.56766C8.36426 2.56766 6.34198 3.38486 4.68952 5.01651C3.15114 6.53627 2.24951 8.83797 2.28121 11.1721C2.30941 13.3005 3.11595 15.2139 4.55148 16.56C6.07792 17.9903 8.36649 18.7839 10.5247 18.6323C12.2152 18.5145 13.6423 17.832 14.5432 16.7088C15.7343 15.2195 16.0753 13.6897 15.5555 12.1582C15.2229 11.178 14.6327 10.4762 14.4137 10.2378C14.3735 10.2022 14.3355 10.1639 14.3024 10.1211C14.2904 10.1134 14.2812 10.1028 14.2727 10.091C13.3331 9.06099 12.3166 8.6451 11.2495 8.61508C10.0373 8.58125 9.05824 9.09276 8.67216 9.47065C7.82268 10.3027 7.46549 11.8401 8.68619 13.242C9.78855 14.5137 11.1973 13.4472 11.3544 13.3211C11.8411 12.9291 12.5596 13.0006 12.959 13.4807C13.3584 13.9562 13.2858 14.6629 12.7977 15.0536C11.4833 16.1064 8.71999 16.7546 6.82589 14.5711C4.75996 12.1965 5.44181 9.47301 7.05971 7.89008C7.89655 7.06566 9.45398 6.33001 11.3135 6.37972C12.3025 6.40632 13.7014 6.59346 15.1355 7.79583L17.7636 4.91696C16.8176 4.39959 15.5969 3.44865 13.8916 3.00454C12.7787 2.71169 11.7221 2.56766 10.7261 2.56766Z" fill="#3C2576"/>
<path d="M21.144 11.0267C22.0077 11.0267 22.7079 10.3406 22.7079 9.49409C22.7079 8.64762 22.0077 7.96143 21.144 7.96143C20.2803 7.96143 19.5801 8.64762 19.5801 9.49409C19.5801 10.3406 20.2803 11.0267 21.144 11.0267Z" fill="#E95513"/>
<path d="M23.0963 5.68808C23.5281 6.10919 23.5281 6.7937 23.0963 7.21613C22.6666 7.63955 21.9686 7.63955 21.5382 7.21613C21.1071 6.7937 21.1071 6.10919 21.5382 5.68808C21.9686 5.26608 22.6666 5.26608 23.0963 5.68808Z" fill="#E95513"/>
<path d="M17.0332 21.666C16.6809 21.666 16.3415 21.485 16.1597 21.1624C15.8948 20.6899 16.0696 20.0982 16.5513 19.8392C20.0353 17.9536 19.1794 14.2859 19.1428 14.1294C19.0132 13.6065 19.3393 13.0781 19.8711 12.9492C20.4029 12.8214 20.9396 13.1378 21.0721 13.658C21.5335 15.4717 21.3849 19.451 17.5121 21.5454C17.3592 21.6283 17.1937 21.666 17.0332 21.666Z" fill="#E95513"/>
<path d="M23.1265 19.2233C23.0892 19.2233 23.0497 19.2202 23.0103 19.2129C22.6349 19.1497 22.3827 18.8022 22.4468 18.4344C23.0962 14.6782 21.7135 12.7043 21.6994 12.685C21.479 12.3814 21.5515 11.961 21.86 11.7449C22.1657 11.5289 22.5926 11.5943 22.8144 11.8926C22.887 11.9894 24.5593 14.2994 23.8056 18.6597C23.7485 18.9888 23.4561 19.2233 23.1265 19.2233Z" fill="#E95513"/>
</svg>
