<svg width="20" height="20" viewBox="0 0 20 20" fill="none" xmlns="http://www.w3.org/2000/svg">
<rect width="20" height="20" rx="10" fill="#F2F3F5"/>
<path fill-rule="evenodd" clip-rule="evenodd" d="M7.76824 5.84549C7.87411 5.63375 8.09052 5.5 8.32725 5.5H11.6727C11.9095 5.5 12.1259 5.63375 12.2318 5.84549L12.559 6.5H14.25C14.6642 6.5 15 6.83579 15 7.25V13.75C15 14.1642 14.6642 14.5 14.25 14.5H5.75C5.33579 14.5 5 14.1642 5 13.75V7.25C5 6.83579 5.33579 6.5 5.75 6.5H7.44098L7.76824 5.84549ZM6 7.5V13.5H14V7.5H6ZM10 9.25C9.30964 9.25 8.75 9.80964 8.75 10.5C8.75 11.1904 9.30964 11.75 10 11.75C10.6904 11.75 11.25 11.1904 11.25 10.5C11.25 9.80964 10.6904 9.25 10 9.25ZM7.75 10.5C7.75 9.25736 8.75736 8.25 10 8.25C11.2426 8.25 12.25 9.25736 12.25 10.5C12.25 11.7426 11.2426 12.75 10 12.75C8.75736 12.75 7.75 11.7426 7.75 10.5Z" fill="#006FD0"/>
</svg>
