<svg width="14" height="14" viewBox="0 0 14 14" fill="none" xmlns="http://www.w3.org/2000/svg">
<path fill-rule="evenodd" clip-rule="evenodd" d="M4.92031 1.8075C5.02551 1.42878 5.37033 1.16669 5.76339 1.16669H8.23667C8.62973 1.16669 8.97455 1.42878 9.07975 1.8075L9.37802 2.88127L10.4571 2.60267C10.8377 2.50442 11.2371 2.672 11.4336 3.01239L12.6703 5.15432C12.8668 5.49472 12.8122 5.92439 12.5369 6.20485L11.7561 7.00002L12.5369 7.79519C12.8122 8.07566 12.8668 8.50533 12.6703 8.84573L11.4336 10.9877C11.2371 11.328 10.8377 11.4956 10.4571 11.3974L9.37802 11.1188L9.07975 12.1925C8.97455 12.5713 8.62973 12.8334 8.23667 12.8334H5.76339C5.37033 12.8334 5.02551 12.5713 4.92031 12.1925L4.62206 11.1188L3.54315 11.3974C3.16258 11.4956 2.76318 11.328 2.56666 10.9877L1.33001 8.84573C1.13349 8.50533 1.18806 8.07566 1.46343 7.79519L2.24419 7.00002L1.46344 6.20485C1.18806 5.92439 1.13349 5.49472 1.33002 5.15432L2.56666 3.01239C2.76319 2.672 3.16258 2.50442 3.54316 2.60267L4.62206 2.88121L4.92031 1.8075ZM4.54541 10.8429L4.54552 10.8433L4.54541 10.8429ZM5.98508 2.33335L5.66952 3.46939C5.54185 3.929 5.06958 4.20166 4.60771 4.08242L3.46617 3.78772L2.45122 5.54566L3.2773 6.38699C3.6115 6.72736 3.6115 7.27269 3.2773 7.61305L2.45122 8.45438L3.46617 10.2123L4.60771 9.91762C5.06958 9.79838 5.54185 10.071 5.66952 10.5307L5.98508 11.6667H8.01498L8.33056 10.5306C8.45823 10.071 8.9305 9.79832 9.39237 9.91756L10.5341 10.2123L11.5491 8.45438L10.723 7.61305C10.3888 7.27269 10.3888 6.72736 10.723 6.38699L11.5491 5.54566L10.5341 3.78772L9.39237 4.08248C8.9305 4.20172 8.45823 3.92906 8.33056 3.46945L8.01498 2.33335H5.98508ZM7.00003 5.83335C6.3557 5.83335 5.83336 6.35569 5.83336 7.00002C5.83336 7.64435 6.3557 8.16669 7.00003 8.16669C7.64436 8.16669 8.1667 7.64435 8.1667 7.00002C8.1667 6.35569 7.64436 5.83335 7.00003 5.83335ZM4.6667 7.00002C4.6667 5.71136 5.71137 4.66669 7.00003 4.66669C8.2887 4.66669 9.33336 5.71136 9.33336 7.00002C9.33336 8.28869 8.2887 9.33335 7.00003 9.33335C5.71137 9.33335 4.6667 8.28869 4.6667 7.00002Z" fill="#333333"/>
</svg>
